<?xml version="1.0" standalone="no"?>
<!DOCTYPE svg PUBLIC "-//W3C//DTD SVG 20010904//EN"
 "http://www.w3.org/TR/2001/REC-SVG-20010904/DTD/svg10.dtd">
<svg version="1.0" xmlns="http://www.w3.org/2000/svg"
 width="137px" height="137px" viewBox="0 0 537.000000 599.000000"
 preserveAspectRatio="xMidYMid meet">

<g transform="translate(0.000000,599.000000) scale(0.100000,-0.100000)"
  fill="#014e91">
<path d="M2585 5710 c-713 -52 -1340 -418 -1740 -1015 -87 -130 -204 -369
-255 -521 -187 -564 -152 -1173 99 -1699 120 -251 249 -434 446 -630 243 -243
509 -415 815 -528 151 -55 153 -52 15 20 -422 222 -737 542 -941 958 -105 214
-163 400 -200 635 -25 156 -25 461 0 620 74 483 284 893 632 1230 171 166 328
278 534 380 725 361 1584 285 2235 -197 49 -37 142 -118 208 -182 177 -172
288 -318 404 -531 35 -63 63 -112 63 -108 0 24 -87 234 -141 340 -298 585
-840 1011 -1483 1169 -213 52 -479 74 -691 59z m163 -78 c8 -10 12 -51 12
-118 l0 -102 -60 0 c-48 0 -62 4 -70 18 -20 38 -11 72 30 111 39 37 50 59 30
59 -5 0 -10 -7 -10 -15 0 -10 -10 -15 -30 -15 -25 0 -30 4 -30 24 0 36 43 67
83 59 18 -3 38 -13 45 -21z"/>
<path d="M2686 5503 c-9 -9 -7 -33 3 -33 12 0 22 28 12 34 -5 3 -11 3 -15 -1z"/>
<path d="M3744 4848 c-121 -132 -175 -250 -182 -403 -5 -117 12 -204 58 -295
17 -33 27 -60 24 -60 -6 0 -365 196 -709 387 -350 194 -507 261 -674 283 -153
21 -299 -21 -386 -109 -21 -23 -34 -41 -28 -41 6 0 16 7 23 15 6 8 37 24 68
37 46 18 77 22 157 22 214 -1 416 -91 910 -409 440 -283 522 -326 735 -389
152 -44 285 -59 480 -53 202 6 330 28 512 87 128 42 178 66 120 56 -125 -21
-326 -28 -486 -17 -208 14 -290 30 -381 75 -87 43 -143 90 -199 170 -66 91
-96 190 -96 313 0 122 17 193 74 306 24 48 42 87 41 87 -2 0 -29 -28 -61 -62z"/>
<path d="M3972 4800 c-60 -37 -77 -125 -37 -186 25 -39 61 -57 112 -56 50 1
85 20 112 62 l16 24 -25 -17 c-59 -41 -150 1 -150 70 0 19 5 43 11 55 14 25
74 51 102 43 21 -6 22 -6 3 9 -28 23 -104 20 -144 -4z"/>
<path d="M3095 1796 c-95 -27 -160 -58 -304 -143 -264 -156 -367 -193 -547
-193 -118 0 -218 17 -324 55 -82 30 -199 86 -243 117 -53 38 -38 10 29 -51
152 -139 449 -301 746 -407 113 -40 109 -47 -22 -41 -312 15 -682 151 -1022
376 -76 50 -140 91 -143 91 -3 0 -5 -8 -5 -18 0 -40 230 -226 493 -399 193
-127 309 -225 385 -326 21 -29 97 -137 168 -242 89 -131 154 -215 212 -272 45
-46 87 -83 92 -83 6 0 10 11 10 24 0 16 14 36 40 59 22 19 40 39 40 45 0 17
-17 15 -24 -3 -3 -8 -17 -15 -31 -15 -20 0 -25 5 -25 24 0 37 46 69 87 61 32
-6 33 -5 33 27 0 18 7 84 15 147 25 185 -2 310 -86 406 -34 39 -37 36 60 55
107 20 199 77 240 150 12 22 35 79 51 126 49 145 124 251 221 314 60 39 157
76 214 82 27 3 25 5 -25 22 -74 25 -266 31 -335 12z"/>
<path d="M2760 264 l0 -57 -35 6 c-56 9 -41 -8 43 -46 76 -35 158 -59 237 -71
34 -5 37 -4 21 7 -10 6 -58 38 -107 70 -55 36  74 -120 102 -18 25 -34 45
-36 45 -2 0 -3 -25 -3 ="/>

</g>
</svg>
