<?xml version="1.0" encoding="UTF-8" standalone="no" ?>
<!DOCTYPE svg PUBLIC "-//W3C//DTD SVG 1.1//EN" "http://www.w3.org/Graphics/SVG/1.1/DTD/svg11.dtd">
<svg xmlns="http://www.w3.org/2000/svg" xmlns:xlink="http://www.w3.org/1999/xlink" version="1.1" width="390px" height="390px" viewBox="0 0 900 900" xml:space="preserve">
<desc>Created with Fabric.js 5.2.4</desc>
<defs>
</defs>
<rect x="0" y="0" width="400px" height="390px" fill="transparent"></rect>
<g transform="matrix(1 0 0 1 540 540)" id="d3dd6643-b0ca-451a-a571-5a3807551250"  >
</g>
<g transform="matrix(1 0 0 1 540 540)" id="c4ba3ead-2991-4837-9057-898a83308f28"  >
<rect style="stroke: none; stroke-width: 1; stroke-dasharray: none; stroke-linecap: butt; stroke-dashoffset: 0; stroke-linejoin: miter; stroke-miterlimit: 4; fill: rgb(255,255,255); fill-rule: nonzero; opacity: 1; visibility: hidden;" vector-effect="non-scaling-stroke"  x="-540" y="-540" rx="0" ry="0" width="1080" height="1080" />
</g>
<g transform="matrix(1 0 0 1 555.96 859.5)"  >
<g style="" vector-effect="non-scaling-stroke"   >
		<g transform="matrix(0.13 0 0 -0.13 -19.12 -391.4)"  >
<path style="stroke: none; stroke-width: 1; stroke-dasharray: none; stroke-linecap: butt; stroke-dashoffset: 0; stroke-linejoin: miter; stroke-miterlimit: 4; fill: rgb(0,78,145); fill-rule: nonzero; opacity: 1;" vector-effect="non-scaling-stroke"  transform=" translate(-6332.05, -8118.94)" d="M 6200 10328 C 6038 10310 5894 10288 5878 10279 C 5868 10274 5851 10270 5841 10270 C 5830 10270 5811 10266 5798 10261 C 5785 10256 5748 10245 5715 10236 C 5682 10226 5646 10215 5635 10210 C 5624 10206 5599 10196 5580 10190 C 5424 10134 5206 10018 5067 9917 C 5027 9889 4991 9862 4985 9858 C 4948 9832 4859 9750 4765 9655 C 4640 9530 4638 9527 4550 9405 C 4514 9356 4482 9314 4478 9312 C 4473 9310 4470 9304 4470 9299 C 4470 9294 4452 9261 4431 9227 C 4395 9171 4336 9051 4282 8930 C 4252 8861 4191 8673 4184 8627 C 4180 8604 4174 8581 4170 8575 C 4160 8562 4154 8525 4129 8320 C 4087 7977 4135 7588 4257 7270 C 4304 7150 4368 7015 4416 6933 C 4475 6835 4494 6804 4500 6800 C 4504 6797 4515 6780 4525 6763 C 4536 6745 4548 6730 4552 6730 C 4556 6730 4560 6724 4560 6716 C 4560 6708 4563 6700 4568 6698 C 4572 6697 4601 6664 4632 6625 C 4692 6550 4885 6359 4960 6299 C 5015 6255 5148 6160 5155 6160 C 5157 6160 5184 6144 5214 6125 C 5244 6106 5273 6090 5279 6090 C 5284 6090 5290 6087 5292 6083 C 5295 6076 5441 6002 5500 5978 C 5625 5926 5698 5900 5718 5900 C 5727 5900 5719 5908 5700 5916 C 5681 5925 5654 5937 5640 5943 C 5592 5965 5425 6062 5365 6103 C 5048 6319 4744 6697 4599 7058 C 4594 7070 4586 7090 4581 7103 C 4559 7154 4520 7280 4520 7297 C 4520 7308 4516 7320 4512 7326 C 4507 7331 4495 7380 4486 7435 C 4477 7490 4465 7555 4460 7580 C 4435 7705 4440 8030 4470 8220 C 4489 8340 4540 8528 4581 8628 C 4586 8640 4594 8660 4599 8673 C 4643 8784 4788 9049 4841 9114 C 4846 9120 4879 9161 4914 9205 C 4992 9303 5169 9479 5270 9558 C 5447 9696 5698 9831 5907 9899 C 6039 9943 6078 9952 6240 9981 C 6371 10004 6590 10014 6733 10002 C 6866 9991 6910 9986 7036 9961 C 7129 9944 7292 9894 7388 9854 C 7405 9846 7437 9833 7458 9824 C 7722 9714 8036 9475 8242 9224 C 8320 9129 8430 8970 8430 8952 C 8430 8946 8433 8940 8438 8938 C 8442 8937 8469 8888 8498 8830 C 8526 8773 8550 8733 8550 8742 C 8550 8751 8546 8762 8540 8765 C 8535 8768 8530 8780 8530 8792 C 8530 8803 8523 8828 8514 8848 C 8505 8869 8494 8894 8490 8905 C 8454 8993 8347 9201 8297 9279 C 8144 9519 7923 9752 7693 9918 C 7653 9947 7618 9970 7614 9970 C 7611 9970 7588 9984 7564 10001 C 7500 10045 7307 10142 7220 10174 C 7179 10189 7136 10205 7125 10210 C 7097 10222 6988 10253 6880 10280 C 6824 10295 6665 10318 6545 10329 C 6421 10341 6310 10341 6200 10328 z" stroke-linecap="round" />
</g>
		<g transform="matrix(0.13 0 0 -0.13 72.98 -493.62)"  >
<path style="stroke: none; stroke-width: 1; stroke-dasharray: none; stroke-linecap: butt; stroke-dashoffset: 0; stroke-linejoin: miter; stroke-miterlimit: 4; fill: rgb(0,78,145); fill-rule: nonzero; opacity: 1;" vector-effect="non-scaling-stroke"  transform=" translate(-7005.44, -8925.8)" d="M 7372 9458 C 7243 9305 7195 9180 7203 9019 C 7209 8888 7224 8833 7281 8742 C 7297 8716 7285 8701 7262 8717 C 7253 8724 7225 8740 7200 8753 C 7175 8766 7127 8793 7092 8813 C 7057 8833 7012 8858 6992 8867 C 6972 8876 6953 8886 6950 8889 C 6944 8896 6926 8906 6838 8954 C 6803 8972 6732 9011 6680 9040 C 6628 9069 6556 9108 6521 9126 C 6486 9145 6452 9164 6446 9169 C 6400 9205 6152 9319 6045 9352 C 5903 9396 5714 9392 5613 9343 C 5561 9317 5473 9244 5483 9234 C 5485 9231 5509 9243 5535 9259 C 5598 9299 5675 9314 5780 9306 C 5858 9301 5978 9270 6055 9235 C 6225 9159 6327 9100 6700 8864 C 6873 8754 7027 8658 7043 8651 C 7058 8643 7070 8633 7070 8629 C 7070 8612 6992 8558 6953 8547 L 6910 8536 L 6962 8517 C 7032 8490 7106 8416 7122 8356 C 7136 8303 7145 8298 7153 8338 C 7162 8380 7216 8454 7261 8485 C 7308 8518 7337 8520 7435 8496 C 7597 8456 7858 8439 7985 8459 C 8132 8483 8236 8502 8260 8510 C 8274 8514 8326 8530 8375 8545 C 8425 8560 8473 8576 8482 8581 C 8492 8586 8508 8590 8517 8590 C 8532 8590 8532 8592 8520 8599 C 8512 8605 8502 8607 8498 8604 C 8484 8595 8245 8570 8173 8570 C 8077 8570 7786 8597 7735 8611 C 7653 8633 7546 8694 7483 8755 C 7448 8788 7420 8818 7420 8823 C 7420 8827 7409 8847 7396 8868 C 7349 8941 7327 9026 7326 9140 C 7325 9238 7341 9331 7361 9355 C 7366 9360 7370 9371 7370 9380 C 7370 9389 7390 9428 7414 9468 C 7439 9508 7455 9540 7450 9540 C 7445 9540 7410 9503 7372 9458 z" stroke-linecap="round" />
</g>
		<g transform="matrix(0.13 0 0 -0.13 168.98 -558.03)"  >
<path style="stroke: none; stroke-width: 1; stroke-dasharray: none; stroke-linecap: butt; stroke-dashoffset: 0; stroke-linejoin: miter; stroke-miterlimit: 4; fill: rgb(0,78,145); fill-rule: nonzero; opacity: 1;" vector-effect="non-scaling-stroke"  transform=" translate(-7688.77, -9423.76)" d="M 7647 9421 C 7667 9405 7674 9404 7705 9414 C 7761 9434 7757 9440 7689 9440 C 7625 9439 7625 9439 7647 9421 z" stroke-linecap="round" />
</g>
		<g transform="matrix(0.13 0 0 -0.13 167.13 -541.86)"  >
<path style="stroke: none; stroke-width: 1; stroke-dasharray: none; stroke-linecap: butt; stroke-dashoffset: 0; stroke-linejoin: miter; stroke-miterlimit: 4; fill: rgb(0,78,145); fill-rule: nonzero; opacity: 1;" vector-effect="non-scaling-stroke"  transform=" translate(-7676.57, -9299.87)" d="M 7579 9394 C 7547 9359 7544 9266 7575 9244 C 7586 9236 7593 9226 7591 9222 C 7589 9218 7600 9208 7616 9198 C 7645 9181 7726 9174 7732 9188 C 7734 9192 7748 9202 7765 9210 C 7781 9219 7796 9234 7798 9244 C 7802 9261 7801 9262 7779 9246 C 7699 9190 7592 9289 7648 9368 C 7668 9396 7668 9396 7649 9408 C 7621 9426 7606 9423 7579 9394 z M 7587 9324 C 7584 9321 7575 9320 7568 9323 C 7560 9326 7563 9329 7574 9329 C 7585 9330 7591 9327 7587 9324 z" stroke-linecap="round" />
</g>
		<g transform="matrix(0.13 0 0 -0.13 179.41 -556.85)"  >
<path style="stroke: none; stroke-width: 1; stroke-dasharray: none; stroke-linecap: butt; stroke-dashoffset: 0; stroke-linejoin: miter; stroke-miterlimit: 4; fill: rgb(0,78,145); fill-rule: nonzero; opacity: 1;" vector-effect="non-scaling-stroke"  transform=" translate(-7765.86, -9415.19)" d="M 7758 9413 C 7765 9410 7774 9411 7777 9414 C 7781 9417 7775 9420 7764 9419 C 7753 9419 7750 9416 7758 9413 z" stroke-linecap="round" />
</g>
		<g transform="matrix(0.13 0 0 -0.13 -52.98 -329.56)"  >
<path style="stroke: none; stroke-width: 1; stroke-dasharray: none; stroke-linecap: butt; stroke-dashoffset: 0; stroke-linejoin: miter; stroke-miterlimit: 4; fill: rgb(0,78,145); fill-rule: nonzero; opacity: 1;" vector-effect="non-scaling-stroke"  transform=" translate(-6059.9, -7683.82)" d="M 5878 8750 C 5544 8697 5280 8517 5097 8219 C 5083 8195 5074 8192 4998 8187 C 4803 8172 4647 8132 4596 8085 C 4566 8057 4561 8003 4585 7966 C 4620 7912 4851 7781 4886 7794 C 4915 7805 4895 7822 4797 7874 C 4674 7938 4628 7981 4632 8024 C 4636 8064 4686 8093 4795 8115 C 4874 8131 5050 8147 5050 8138 C 5050 8136 5037 8098 5021 8054 C 4977 7935 4959 7823 4959 7680 C 4960 7388 5061 7141 5260 6939 C 5436 6762 5631 6660 5860 6625 C 6196 6573 6514 6669 6759 6896 C 6994 7114 7126 7444 7103 7755 C 7100 7796 7099 7830 7101 7830 C 7116 7830 7278 7762 7344 7728 C 7562 7614 7537 7529 7273 7490 C 7155 7472 7150 7471 7150 7455 C 7150 7431 7168 7428 7263 7440 C 7448 7464 7550 7516 7550 7586 C 7550 7663 7408 7764 7176 7851 C 7128 7869 7087 7889 7085 7895 C 7043 8069 6980 8209 6891 8328 C 6739 8529 6526 8669 6278 8731 C 6183 8754 5970 8764 5878 8750 z M 6020 8730 C 6020 8724 5992 8720 5956 8720 C 5921 8720 5883 8717 5873 8714 C 5861 8709 5858 8710 5865 8718 C 5879 8732 5906 8737 5968 8739 C 5997 8739 6020 8736 6020 8730 z M 6198 8726 C 6208 8716 6197 8715 6118 8718 C 6071 8720 6040 8726 6040 8732 C 6040 8743 6186 8737 6198 8726 z M 5820 8710 C 5806 8706 5784 8702 5770 8702 C 5747 8701 5747 8702 5765 8710 C 5776 8715 5799 8718 5815 8718 C 5844 8718 5844 8718 5820 8710 z M 6290 8710 L 6315 8702 L 6290 8702 C 6276 8702 6254 8706 6240 8710 L 6215 8718 L 6240 8718 C 6254 8718 6276 8714 6290 8710 z M 6020 8666 L 6020 8621 L 5968 8616 C 5801 8599 5798 8599 5806 8623 C 5829 8700 5838 8704 5968 8708 L 6020 8710 L 6020 8666 z M 6168 8703 C 6223 8697 6235 8685 6254 8623 C 6262 8599 6259 8599 6093 8616 L 6040 8621 L 6040 8666 L 6040 8710 L 6078 8710 C 6098 8710 6139 8707 6168 8703 z M 5737 8694 C 5734 8691 5725 8690 5718 8693 C 5710 8696 5713 8699 5724 8699 C 5735 8700 5741 8697 5737 8694 z M 5803 8649 C 5794 8625 5785 8604 5784 8602 C 5781 8596 5588 8559 5584 8563 C 5582 8565 5596 8588 5615 8613 C 5640 8646 5661 8662 5688 8669 C 5734 8681 5814 8697 5817 8695 C 5819 8694 5812 8674 5803 8649 z M 6371 8670 C 6399 8662 6419 8646 6445 8613 C 6464 8588 6479 8565 6477 8563 C 6474 8561 6437 8567 6394 8576 C 6351 8584 6306 8593 6294 8596 C 6280 8598 6269 8612 6261 8637 C 6254 8658 6247 8680 6244 8686 C 6239 8698 6291 8691 6371 8670 z M 5594 8603 C 5565 8564 5545 8550 5487 8527 C 5447 8511 5407 8497 5398 8496 C 5388 8495 5373 8487 5363 8478 C 5353 8470 5334 8457 5320 8450 L 5295 8437 L 5320 8465 C 5334 8480 5357 8501 5372 8512 C 5398 8530 5399 8530 5394 8513 C 5391 8502 5402 8509 5422 8530 C 5440 8550 5465 8574 5477 8584 C 5496 8600 5605 8649 5622 8650 C 5627 8650 5614 8629 5594 8603 z M 6544 8606 C 6601 8575 6699 8476 6655 8495 C 6644 8499 6604 8514 6567 8528 C 6521 8545 6493 8562 6482 8579 C 6474 8593 6457 8616 6446 8629 L 6425 8653 L 6455 8646 C 6472 8642 6512 8624 6544 8606 z M 6020 8576 C 6020 8554 6015 8551 5960 8546 C 5927 8543 5872 8537 5838 8534 C 5783 8528 5778 8529 5783 8545 C 5787 8554 5790 8568 5790 8575 C 5790 8591 5823 8596 5938 8598 C 6018 8600 6020 8600 6020 8576 z M 6264 8589 C 6266 8587 6270 8572 6274 8556 L 6281 8528 L 6220 8534 C 6187 8537 6133 8543 6100 8546 C 6044 8552 6040 8554 6040 8577 L 6040 8603 L 6150 8598 C 6211 8595 6262 8591 6264 8589 z M 5776 8558 C 5772 8545 5766 8513 5763 8485 C 5760 8458 5753 8432 5747 8428 C 5742 8425 5713 8419 5685 8415 C 5656 8412 5609 8403 5579 8395 C 5550 8387 5524 8382 5522 8384 C 5520 8386 5524 8406 5530 8429 C 5541 8472 5542 8472 5655 8499 C 5677 8504 5686 8508 5675 8509 C 5664 8509 5631 8503 5603 8496 C 5544 8480 5534 8490 5568 8528 C 5586 8549 5686 8577 5749 8579 C 5779 8580 5782 8578 5776 8558 z M 6403 8564 C 6448 8554 6482 8541 6493 8528 C 6517 8500 6515 8481 6488 8486 C 6471 8489 6472 8487 6492 8479 C 6512 8472 6523 8457 6531 8429 C 6538 8408 6541 8388 6539 8385 C 6536 8383 6510 8387 6481 8395 C 6451 8403 6404 8412 6375 8415 C 6307 8424 6303 8428 6299 8475 L 6295 8515 L 6330 8513 L 6365 8511 L 6332 8519 C 6294 8529 6295 8528 6286 8558 C 6280 8577 6282 8580 6305 8580 C 6319 8580 6363 8573 6403 8564 z M 6745 8464 L 6785 8428 L 6740 8453 C 6715 8467 6684 8493 6670 8511 L 6645 8544 L 6675 8523 C 6692 8511 6723 8484 6745 8464 z M 5550 8522 C 5550 8498 5515 8475 5437 8445 C 5389 8427 5350 8414 5350 8416 C 5350 8418 5355 8430 5362 8444 C 5377 8478 5550 8549 5550 8522 z M 6020 8491 L 6020 8452 L 5958 8446 C 5755 8429 5770 8428 5770 8453 C 5771 8522 5777 8526 5933 8528 L 6020 8530 L 6020 8491 z M 6281 8509 C 6286 8501 6290 8480 6290 8462 C 6290 8429 6289 8428 6253 8434 C 6232 8437 6176 8442 6128 8446 L 6040 8452 L 6040 8493 L 6040 8533 L 6156 8528 C 6239 8524 6275 8519 6281 8509 z M 6609 8500 C 6667 8478 6690 8463 6698 8444 C 6715 8409 6714 8408 6683 8423 C 6667 8431 6630 8445 6600 8455 C 6549 8471 6510 8500 6510 8521 C 6510 8535 6526 8532 6609 8500 z M 5515 8423 C 5507 8378 5503 8370 5487 8370 C 5480 8370 5438 8355 5393 8336 C 5347 8318 5310 8304 5310 8305 C 5310 8306 5317 8326 5325 8351 C 5339 8393 5344 8397 5418 8427 C 5520 8469 5524 8469 5515 8423 z M 6655 8422 C 6688 8408 6717 8395 6718 8394 C 6724 8390 6748 8315 6745 8311 C 6741 8308 6569 8370 6558 8379 C 6555 8382 6548 8403 6544 8424 L 6537 8463 L 6566 8456 C 6582 8452 6622 8437 6655 8422 z M 5346 8434 C 5343 8425 5340 8417 5340 8414 C 5340 8411 5274 8367 5221 8335 C 5185 8314 5246 8389 5288 8418 C 5339 8453 5355 8458 5346 8434 z M 6771 8418 C 6797 8401 6825 8374 6835 8358 L 6852 8329 L 6789 8367 C 6755 8388 6723 8415 6719 8428 C 6708 8457 6716 8456 6771 8418 z M 6020 8331 L 6020 8232 L 5958 8226 C 5923 8223 5864 8219 5827 8216 L 5759 8211 L 5762 8313 L 5765 8415 L 5800 8421 C 5819 8425 5877 8428 5928 8429 L 6020 8430 L 6020 8331 z M 6289 8416 C 6296 8411 6300 8373 6300 8308 L 6300 8208 L 6268 8213 C 6250 8216 6191 8222 6138 8226 L 6040 8232 L 6040 8333 L 6040 8433 L 6159 8428 C 6224 8425 6282 8420 6289 8416 z M 6510 8376 C 6540 8367 6546 8359 6552 8325 C 6556 8303 6559 8256 6559 8221 C 6560 8158 6560 8158 6534 8164 C 6520 8168 6474 8177 6432 8186 C 6390 8194 6345 8203 6333 8206 C 6311 8210 6310 8215 6310 8314 L 6310 8417 L 6393 8402 C 6438 8394 6491 8382 6510 8376 z M 5750 8310 C 5750 8215 5749 8210 5728 8206 C 5633 8186 5592 8180 5548 8180 L 5497 8180 L 5504 8267 C 5507 8315 5514 8358 5518 8362 C 5527 8371 5686 8408 5723 8409 L 5750 8410 L 5750 8310 z M 5308 8336 C 5301 8315 5287 8292 5275 8285 C 5264 8278 5235 8260 5212 8245 C 5188 8231 5170 8216 5173 8214 C 5175 8211 5201 8224 5229 8241 C 5257 8259 5282 8271 5285 8269 C 5287 8266 5287 8247 5283 8227 L 5277 8190 L 5221 8190 C 5170 8190 5164 8192 5163 8211 C 5159 8253 5198 8307 5257 8344 C 5288 8364 5315 8378 5317 8377 C 5318 8375 5314 8357 5308 8336 z M 6811 8340 C 6851 8312 6875 8288 6885 8263 C 6907 8211 6904 8206 6868 8233 C 6850 8247 6820 8265 6802 8274 C 6784 8283 6765 8301 6761 8313 C 6744 8358 6739 8380 6745 8380 C 6748 8380 6778 8362 6811 8340 z M 5496 8323 C 5493 8302 5490 8261 5490 8232 L 5490 8178 L 5393 8185 C 5339 8189 5294 8194 5292 8195 C 5291 8196 5292 8216 5296 8239 C 5302 8275 5308 8284 5344 8302 C 5384 8322 5477 8358 5494 8359 C 5499 8360 5500 8343 5496 8323 z M 6670 8323 C 6706 8309 6740 8293 6747 8286 C 6759 8275 6787 8094 6779 8085 C 6776 8083 6734 8096 6685 8115 C 6635 8134 6589 8149 6583 8150 C 6574 8150 6570 8170 6570 8218 C 6570 8255 6567 8302 6563 8324 C 6556 8368 6552 8368 6670 8323 z M 6886 8205 C 6916 8179 6922 8165 6935 8097 C 6961 7961 6963 7963 6871 8021 L 6793 8071 L 6787 8143 C 6783 8183 6778 8230 6774 8249 L 6767 8282 L 6809 8259 C 6832 8246 6867 8222 6886 8205 z M 5147 8225 C 5140 8201 5131 8190 5117 8190 C 5096 8190 5098 8193 5139 8243 C 5159 8267 5160 8265 5147 8225 z M 6967 8175 C 6991 8128 6991 8126 6971 8144 C 6942 8171 6945 8149 6974 8120 C 7008 8089 7038 8022 7048 7956 C 7056 7907 7055 7900 7040 7900 C 7031 7900 7010 7915 6993 7933 C 6963 7965 6956 7996 6945 8142 C 6944 8157 6939 8175 6933 8182 C 6927 8189 6918 8210 6911 8229 L 6900 8263 L 6921 8244 C 6933 8234 6954 8203 6967 8175 z M 6020 8167 L 6020 8125 L 5890 8139 C 5778 8152 5760 8157 5760 8172 C 5760 8196 5801 8204 5958 8208 L 6020 8210 L 6020 8167 z M 6286 8193 C 6301 8188 6307 8080 6293 8080 C 6288 8080 6233 8089 6170 8100 C 6107 8111 6052 8120 6048 8120 C 6043 8120 6040 8141 6040 8166 L 6040 8213 L 6156 8206 C 6220 8202 6279 8196 6286 8193 z M 5750 8175 C 5750 8164 5739 8160 5711 8160 C 5662 8160 5648 8177 5692 8183 C 5710 8185 5731 8188 5738 8188 C 5744 8189 5750 8183 5750 8175 z M 6426 8170 C 6570 8140 6560 8147 6560 8084 C 6560 8047 6556 8030 6548 8030 C 6541 8031 6486 8041 6425 8053 L 6315 8076 L 6312 8133 C 6310 8164 6313 8190 6318 8190 C 6324 8190 6372 8181 6426 8170 z M 5116 8124 C 5112 8114 5107 8075 5103 8036 C 5098 7968 5095 7961 5049 7910 L 5000 7855 L 5006 7905 C 5014 7987 5041 8067 5072 8104 C 5103 8141 5127 8152 5116 8124 z M 5270 8107 C 5270 8077 5263 8070 5190 8022 C 5099 7964 5101 7962 5121 8077 L 5132 8140 L 5201 8140 L 5270 8140 L 5270 8107 z M 5360 8110 C 5319 8093 5284 8080 5283 8080 C 5281 8080 5280 8094 5280 8110 L 5280 8140 L 5358 8140 L 5435 8139 L 5360 8110 z M 5494 8033 C 5498 7979 5502 7927 5503 7916 C 5505 7901 5491 7893 5440 7875 C 5404 7863 5360 7845 5343 7836 C 5325 7827 5309 7824 5306 7828 C 5304 7832 5296 7882 5290 7939 C 5281 8024 5281 8045 5292 8056 C 5305 8069 5454 8129 5476 8130 C 5483 8130 5490 8093 5494 8033 z M 5720 8114 C 5748 8108 5750 8105 5750 8060 C 5750 8034 5753 7999 5756 7982 C 5763 7947 5774 7952 5633 7925 C 5587 7917 5544 7907 5536 7904 C 5520 7898 5512 7930 5503 8048 L 5497 8133 L 5593 8126 C 5646 8123 5703 8117 5720 8114 z M 6702 8088 C 6778 8059 6780 8058 6780 8025 C 6780 8006 6776 7989 6771 7986 C 6766 7983 6719 7990 6666 8002 L 6570 8024 L 6570 8078 C 6570 8132 6570 8132 6597 8125 C 6612 8122 6660 8105 6702 8088 z M 5943 8088 L 6020 8078 L 6020 8025 L 6020 7972 L 5933 7966 C 5884 7962 5829 7957 5809 7954 C 5775 7949 5772 7950 5766 7981 C 5763 7998 5760 8035 5760 8062 L 5760 8112 L 5813 8105 C 5841 8102 5900 8094 5943 8088 z M 6192 8051 C 6246 8042 6293 8031 6296 8027 C 6300 8024 6299 8005 6296 7985 C 6289 7949 6288 7949 6252 7954 C 6232 7957 6176 7962 6128 7966 L 6040 7972 L 6040 8021 C 6040 8068 6041 8070 6068 8070 C 6083 8069 6139 8061 6192 8051 z M 5275 7805 C 5265 7800 5232 7778 5201 7758 C 5170 7738 5142 7724 5138 7728 C 5130 7737 5110 7868 5110 7914 C 5110 7946 5115 7952 5188 8000 L 5265 8051 L 5279 7933 C 5292 7823 5291 7815 5275 7805 z M 6908 7977 C 6966 7935 6965 7920 6904 7940 C 6888 7945 6856 7954 6833 7960 C 6791 7970 6790 7972 6790 8011 L 6790 8052 L 6828 8029 C 6848 8017 6884 7993 6908 7977 z M 6441 8005 C 6551 7983 6554 7981 6546 7936 C 6540 7907 6535 7900 6522 7904 C 6513 7907 6461 7918 6406 7929 C 6352 7940 6306 7950 6304 7952 C 6302 7954 6303 7973 6307 7994 C 6312 8026 6316 8031 6334 8026 C 6346 8024 6394 8014 6441 8005 z M 6665 7955 C 6779 7929 6772 7935 6764 7882 C 6760 7856 6756 7832 6754 7829 C 6748 7818 6555 7896 6556 7908 C 6557 7915 6558 7934 6559 7951 C 6560 7975 6564 7980 6578 7976 C 6587 7973 6627 7963 6665 7955 z M 6020 7886 L 6020 7822 L 5904 7815 C 5841 7811 5787 7810 5784 7812 C 5782 7815 5777 7844 5774 7878 L 5767 7939 L 5801 7943 C 5820 7945 5877 7948 5928 7948 L 6020 7950 L 6020 7886 z M 6245 7943 L 6293 7937 L 6287 7878 C 6284 7845 6279 7816 6277 7813 C 6274 7810 6219 7811 6156 7815 L 6040 7822 L 6040 7886 L 6040 7950 L 6119 7950 C 6162 7950 6219 7947 6245 7943 z M 5760 7916 C 5760 7903 5763 7873 5766 7849 L 5772 7805 L 5679 7788 C 5627 7778 5575 7767 5564 7764 C 5545 7759 5542 7764 5536 7807 C 5532 7833 5527 7863 5524 7872 C 5520 7885 5535 7892 5612 7909 C 5709 7930 5740 7937 5753 7939 C 5757 7939 5760 7929 5760 7916 z M 6453 7908 C 6535 7890 6541 7886 6536 7866 C 6533 7855 6528 7826 6524 7802 C 6518 7761 6516 7759 6491 7765 C 6427 7782 6333 7800 6311 7800 C 6289 7800 6288 7803 6294 7838 C 6297 7858 6300 7890 6300 7907 C 6300 7944 6293 7944 6453 7908 z M 5119 7750 C 5128 7708 5128 7706 5082 7654 L 5035 7601 L 5027 7638 C 5022 7658 5015 7707 5011 7745 C 5002 7821 5008 7837 5069 7903 L 5095 7931 L 5102 7862 C 5106 7824 5113 7774 5119 7750 z M 6874 7900 C 6912 7889 6944 7879 6947 7877 C 6951 7872 6930 7727 6924 7721 C 6923 7719 6894 7735 6862 7756 C 6829 7778 6795 7800 6785 7805 C 6770 7814 6769 7824 6775 7868 C 6779 7897 6787 7920 6793 7920 C 6800 7920 6836 7911 6874 7900 z M 5514 7863 C 5517 7853 5522 7825 5525 7800 L 5532 7754 L 5473 7736 C 5441 7726 5398 7709 5378 7699 L 5341 7680 L 5331 7717 C 5306 7813 5306 7809 5336 7821 C 5415 7853 5486 7879 5497 7879 C 5503 7880 5511 7872 5514 7863 z M 6678 7838 C 6717 7822 6750 7805 6750 7802 C 6750 7798 6744 7773 6736 7745 C 6726 7706 6719 7695 6704 7697 C 6666 7700 6530 7755 6530 7767 C 6530 7774 6535 7802 6541 7830 C 6551 7879 6553 7881 6579 7875 C 6593 7871 6638 7855 6678 7838 z M 7043 7838 C 7062 7815 7062 7817 7039 7671 L 7028 7598 L 6981 7651 C 6956 7680 6935 7706 6935 7709 C 6936 7713 6942 7750 6949 7793 L 6963 7872 L 6994 7866 C 7011 7863 7033 7850 7043 7838 z M 4987 7828 C 4984 7820 4981 7823 4981 7834 C 4980 7845 4983 7851 4986 7847 C 4989 7844 4990 7835 4987 7828 z M 6020 7751 L 6020 7693 L 5938 7687 C 5787 7675 5792 7674 5787 7723 L 5783 7765 L 5782 7720 L 5780 7675 L 5690 7658 C 5641 7648 5595 7639 5589 7638 C 5577 7635 5544 7738 5554 7747 C 5556 7749 5604 7761 5661 7772 C 5741 7788 5765 7790 5768 7780 C 5771 7771 5774 7771 5781 7781 C 5789 7795 5862 7806 5963 7809 L 6020 7810 L 6020 7751 z M 6188 7804 C 6272 7798 6280 7795 6281 7776 C 6282 7758 6283 7758 6287 7773 C 6291 7789 6298 7790 6333 7785 C 6424 7771 6510 7748 6510 7739 C 6510 7710 6486 7640 6476 7640 C 6470 7640 6423 7648 6373 7657 L 6280 7675 L 6278 7715 L 6277 7755 L 6273 7718 C 6268 7675 6270 7675 6123 7687 L 6040 7693 L 6040 7751 C 6040 7819 6028 7815 6188 7804 z M 5313 7739 L 5328 7678 L 5298 7662 C 5281 7652 5248 7631 5224 7613 L 5181 7581 L 5162 7640 C 5143 7694 5143 7700 5158 7713 C 5181 7733 5283 7800 5291 7800 C 5295 7800 5304 7773 5313 7739 z M 6809 7778 C 6829 7766 6862 7744 6882 7728 L 6919 7699 L 6903 7647 C 6895 7618 6886 7592 6884 7588 C 6881 7584 6860 7595 6836 7613 C 6812 7631 6779 7652 6762 7662 L 6732 7678 L 6747 7739 C 6756 7773 6765 7800 6768 7800 C 6770 7800 6789 7790 6809 7778 z M 5017 7629 C 5026 7600 5024 7581 5010 7539 L 4992 7486 L 4984 7525 C 4973 7582 4973 7732 4984 7755 C 4992 7771 4995 7764 5000 7720 C 5004 7690 5012 7649 5017 7629 z M 7085 7627 C 7082 7578 7076 7525 7073 7509 C 7067 7480 7067 7480 7050 7529 C 7035 7574 7035 7587 7046 7642 C 7054 7677 7060 7717 7060 7731 C 7060 7745 7063 7760 7067 7764 C 7082 7779 7091 7712 7085 7627 z M 5548 7689 C 5563 7623 5563 7620 5543 7620 C 5533 7620 5494 7606 5455 7590 C 5417 7573 5383 7563 5379 7568 C 5376 7572 5366 7597 5357 7623 L 5341 7671 L 5368 7681 C 5488 7729 5516 7739 5526 7740 C 5532 7740 5542 7717 5548 7689 z M 6591 7721 C 6621 7711 6662 7695 6682 7686 L 6719 7670 L 6703 7623 C 6694 7596 6685 7572 6681 7568 C 6676 7562 6517 7620 6504 7632 C 6498 7639 6522 7740 6530 7740 C 6534 7740 6561 7731 6591 7721 z M 5153 7627 L 5169 7579 L 5124 7524 C 5097 7490 5078 7474 5075 7482 C 5072 7489 5063 7515 5055 7539 L 5040 7583 L 5081 7637 C 5104 7667 5126 7688 5130 7683 C 5134 7679 5145 7653 5153 7627 z M 6020 7546 L 6020 7411 L 5933 7408 C 5884 7406 5843 7406 5841 7407 C 5839 7408 5834 7424 5829 7442 L 5820 7475 L 5824 7438 C 5829 7402 5828 7400 5792 7394 C 5772 7391 5739 7384 5720 7379 C 5668 7366 5660 7367 5649 7398 C 5626 7457 5580 7613 5585 7618 C 5592 7625 5742 7660 5768 7660 C 5785 7660 5790 7654 5791 7633 L 5793 7605 L 5797 7632 C 5802 7667 5815 7670 5983 7678 L 6020 7680 L 6020 7546 z M 6259 7663 C 6264 7659 6232 7438 6223 7414 C 6220 7406 6211 7401 6203 7404 C 6195 7407 6155 7410 6114 7410 L 6040 7410 L 6040 7545 L 6040 7681 L 6148 7674 C 6207 7670 6257 7666 6259 7663 z M 6966 7653 C 7034 7581 7067 7457 7036 7385 L 7023 7355 L 7007 7405 C 6991 7452 6991 7459 7006 7503 C 7015 7530 7019 7554 7016 7557 C 7013 7561 7010 7559 7010 7553 C 7010 7547 7003 7526 6994 7505 L 6979 7467 L 6963 7491 C 6954 7504 6934 7529 6919 7545 L 6892 7575 L 6908 7627 C 6917 7656 6928 7680 6932 7680 C 6936 7680 6951 7668 6966 7653 z M 5349 7619 C 5356 7596 5364 7572 5366 7565 C 5369 7558 5353 7542 5328 7528 C 5304 7515 5273 7496 5258 7486 L 5230 7468 L 5210 7511 C 5199 7535 5190 7560 5190 7567 C 5190 7579 5307 7658 5326 7659 C 5332 7660 5342 7642 5349 7619 z M 6393 7641 C 6436 7631 6473 7620 6476 7617 C 6484 7610 6412 7382 6400 7375 C 6395 7372 6357 7376 6316 7385 C 6275 7393 6239 7400 6238 7400 C 6236 7400 6243 7459 6254 7530 C 6277 7680 6267 7671 6393 7641 z M 6805 7619 C 6841 7597 6870 7572 6870 7564 C 6870 7556 6861 7531 6849 7509 L 6829 7469 L 6797 7490 C 6779 7501 6749 7520 6728 7532 L 6692 7553 L 6706 7594 C 6729 7659 6729 7660 6735 7660 C 6738 7660 6770 7642 6805 7619 z M 5629 7415 L 5647 7365 L 5586 7342 C 5553 7329 5518 7316 5510 7314 C 5498 7310 5480 7337 5441 7419 C 5412 7480 5390 7536 5393 7543 C 5396 7551 5436 7571 5482 7588 L 5565 7618 L 5588 7541 C 5600 7499 5619 7443 5629 7415 z M 6598 7580 C 6674 7551 6781 7493 6808 7466 C 6825 7450 6802 7400 6733 7301 C 6709 7266 6691 7235 6694 7233 C 6698 7229 6773 7339 6826 7426 C 6835 7442 6838 7442 6859 7419 C 6871 7406 6890 7383 6900 7369 C 6919 7343 6919 7343 6883 7289 C 6863 7259 6829 7213 6807 7187 L 6767 7138 L 6729 7183 C 6708 7208 6667 7242 6638 7261 C 6609 7279 6583 7295 6581 7297 C 6579 7298 6600 7349 6628 7409 C 6657 7468 6680 7523 6680 7531 C 6680 7539 6655 7493 6624 7430 C 6594 7367 6567 7314 6565 7312 C 6562 7309 6430 7357 6422 7365 C 6420 7367 6436 7422 6456 7489 C 6480 7565 6499 7610 6507 7610 C 6515 7610 6556 7597 6598 7580 z M 5054 7407 L 5037 7355 L 5022 7390 C 5004 7431 5003 7492 5020 7535 L 5032 7565 L 5052 7512 C 5071 7461 5071 7458 5054 7407 z M 5177 7409 L 5135 7360 L 5113 7403 C 5101 7426 5091 7450 5090 7456 C 5090 7462 5109 7489 5132 7515 L 5174 7562 L 5197 7510 L 5220 7458 L 5177 7409 z M 6952 7487 C 6972 7460 6972 7457 6955 7414 C 6946 7390 6935 7368 6931 7366 C 6927 7363 6905 7383 6882 7410 L 6841 7458 L 6862 7509 L 6884 7560 L 6908 7537 C 6921 7525 6941 7502 6952 7487 z M 5380 7530 C 5380 7524 5404 7469 5432 7408 C 5466 7337 5480 7295 5473 7293 C 5467 7291 5443 7275 5420 7259 L 5379 7229 L 5360 7252 C 5338 7279 5253 7418 5244 7442 C 5240 7455 5253 7469 5301 7500 C 5366 7542 5380 7547 5380 7530 z M 5305 7315 L 5366 7223 L 5329 7181 L 5293 7138 L 5253 7187 C 5219 7229 5168 7300 5147 7336 C 5143 7342 5159 7369 5182 7395 C 5219 7437 5225 7441 5235 7425 C 5240 7416 5272 7366 5305 7315 z M 5107 7388 C 5126 7346 5127 7344 5110 7295 C 5100 7268 5094 7232 5097 7215 C 5101 7190 5100 7188 5090 7203 C 5084 7212 5072 7237 5064 7258 L 5049 7295 L 5069 7270 C 5096 7237 5096 7249 5069 7294 C 5050 7327 5049 7335 5060 7380 C 5067 7408 5075 7430 5079 7430 C 5083 7430 5095 7411 5107 7388 z M 6999 7393 C 7014 7341 7013 7333 6988 7288 L 6966 7249 L 6949 7297 C 6934 7343 6934 7347 6953 7388 C 6965 7411 6977 7430 6982 7430 C 6986 7430 6994 7413 6999 7393 z M 6020 7281 L 6020 7162 L 5959 7155 C 5926 7151 5897 7150 5894 7152 C 5892 7155 5881 7199 5870 7251 C 5859 7303 5848 7355 5845 7367 C 5839 7392 5854 7396 5958 7399 L 6020 7400 L 6020 7281 z M 6215 7388 C 6221 7383 6174 7161 6166 7152 C 6163 7150 6134 7151 6101 7155 L 6040 7162 L 6040 7282 L 6040 7403 L 6125 7398 C 6172 7396 6212 7391 6215 7388 z M 5835 7368 C 5865 7234 5879 7155 5872 7149 C 5868 7145 5841 7139 5813 7135 L 5760 7128 L 5732 7192 C 5691 7283 5666 7350 5672 7355 C 5677 7360 5794 7387 5817 7389 C 5824 7390 5832 7380 5835 7368 z M 6343 7369 C 6371 7362 6390 7353 6390 7344 C 6390 7337 6370 7284 6345 7227 L 6299 7124 L 6245 7135 C 6216 7140 6189 7148 6185 7152 C 6182 7155 6186 7184 6194 7216 C 6202 7249 6214 7301 6220 7333 L 6232 7391 L 6263 7385 C 6281 7382 6316 7374 6343 7369 z M 5701 7229 C 5728 7167 5749 7116 5747 7115 C 5746 7114 5725 7106 5700 7097 L 5655 7079 L 5632 7107 C 5601 7143 5510 7280 5510 7290 C 5510 7303 5637 7352 5648 7344 C 5650 7342 5674 7291 5701 7229 z M 6488 7325 C 6517 7316 6544 7302 6547 7295 C 6551 7282 6499 7196 6438 7118 L 6409 7081 L 6369 7095 C 6347 7103 6325 7112 6320 7115 C 6315 7118 6330 7162 6352 7213 C 6374 7263 6396 7316 6401 7329 C 6406 7341 6416 7350 6423 7347 C 6429 7345 6459 7335 6488 7325 z M 5185 7260 C 5211 7224 5246 7181 5262 7164 C 5291 7133 5291 7131 5279 7090 L 5266 7047 L 5200 7118 C 5110 7216 5104 7228 5120 7285 C 5127 7310 5134 7329 5135 7328 C 5137 7326 5159 7296 5185 7260 z M 6945 7267 C 6951 7233 6947 7224 6912 7177 C 6889 7148 6854 7108 6832 7087 L 6793 7049 L 6781 7089 L 6769 7130 L 6822 7192 C 6852 7227 6886 7272 6899 7293 C 6926 7336 6935 7331 6945 7267 z M 5517 7250 C 5530 7229 5562 7181 5590 7145 C 5617 7109 5640 7077 5640 7075 C 5640 7074 5623 7062 5603 7050 L 5565 7028 L 5478 7118 C 5429 7168 5390 7213 5390 7218 C 5390 7227 5478 7290 5490 7290 C 5493 7290 5505 7272 5517 7250 z M 6622 7259 C 6648 7242 6670 7224 6670 7218 C 6670 7213 6630 7168 6582 7118 L 6493 7027 L 6457 7052 L 6421 7076 L 6460 7129 C 6482 7158 6515 7206 6533 7236 C 6550 7265 6567 7290 6569 7290 C 6571 7290 6595 7276 6622 7259 z M 6996 7255 C 6988 7236 6976 7212 6971 7203 C 6961 7186 6961 7186 6960 7202 C 6960 7218 6997 7290 7006 7290 C 7008 7290 7004 7274 6996 7255 z M 5687 6919 C 5764 6868 5789 6840 5756 6840 C 5748 6840 5692 6865 5631 6896 L 5519 6951 L 5540 6981 C 5565 7015 5557 7020 5530 6988 C 5513 6966 5510 6966 5485 6980 C 5447 7004 5310 7120 5310 7131 C 5310 7135 5324 7155 5341 7174 L 5371 7209 L 5488 7091 C 5556 7023 5639 6951 5687 6919 z M 6750 7131 C 6750 7114 6573 6970 6553 6970 C 6547 6970 6535 6981 6526 6995 C 6509 7021 6509 7021 6597 7115 L 6685 7209 L 6718 7175 C 6735 7156 6750 7136 6750 7131 z M 5221 7075 C 5250 7043 5269 7012 5273 6990 L 5280 6955 L 5217 7020 C 5158 7082 5131 7124 5115 7180 C 5109 7201 5114 7198 5141 7165 C 5160 7143 5195 7103 5221 7075 z M 6944 7173 C 6932 7122 6860 7021 6805 6978 L 6780 6959 L 6787 6992 C 6791 7013 6815 7048 6852 7088 C 6884 7122 6917 7162 6926 7175 C 6947 7207 6952 7206 6944 7173 z M 6020 7040 C 6020 6940 6020 6940 5995 6940 C 5980 6940 5966 6948 5959 6961 C 5947 6985 5900 7119 5900 7132 C 5900 7136 5927 7140 5960 7140 L 6020 7140 L 6020 7040 z M 6155 7108 C 6151 7090 6136 7046 6121 7010 C 6099 6955 6090 6945 6067 6942 L 6040 6939 L 6040 7039 L 6040 7140 L 6101 7140 L 6162 7140 L 6155 7108 z M 5904 7076 C 5913 7046 5929 7001 5940 6976 C 5959 6931 5959 6930 5940 6930 C 5930 6930 5915 6927 5906 6924 C 5890 6918 5852 6966 5797 7060 L 5769 7109 L 5802 7119 C 5820 7124 5847 7129 5862 7129 C 5886 7130 5890 7124 5904 7076 z M 6253 7119 L 6291 7109 L 6263 7060 C 6247 7033 6220 6990 6202 6965 C 6174 6925 6167 6920 6143 6926 C 6127 6930 6114 6934 6112 6935 C 6111 6936 6124 6981 6142 7034 C 6178 7139 6179 7140 6253 7119 z M 5376 7049 C 5399 7029 5436 7000 5459 6984 C 5495 6960 5500 6953 5495 6931 C 5491 6917 5487 6903 5485 6901 C 5479 6896 5392 6948 5333 6993 C 5277 7034 5274 7042 5290 7085 C 5302 7116 5301 7116 5376 7049 z M 5831 6987 C 5866 6934 5877 6910 5866 6910 C 5864 6910 5855 6907 5846 6904 C 5835 6900 5805 6922 5750 6976 C 5706 7018 5670 7059 5670 7065 C 5670 7071 5689 7083 5713 7092 L 5755 7107 L 5774 7076 C 5784 7059 5810 7019 5831 6987 z M 6393 7070 C 6406 7059 6232 6897 6214 6904 C 6206 6907 6194 6910 6190 6910 C 6185 6910 6208 6951 6240 7002 C 6273 7053 6300 7098 6300 7102 C 6300 7110 6378 7083 6393 7070 z M 6770 7101 C 6770 7096 6773 7079 6776 7063 C 6781 7037 6776 7030 6728 6994 C 6668 6948 6581 6896 6575 6901 C 6573 6903 6569 6917 6565 6932 C 6559 6954 6563 6961 6587 6974 C 6602 6982 6647 7016 6685 7049 C 6754 7109 6770 7118 6770 7101 z M 5734 6976 C 5805 6906 5817 6890 5805 6880 C 5788 6866 5742 6890 5641 6966 L 5577 7014 L 5606 7037 C 5622 7050 5638 7060 5642 7060 C 5646 7060 5688 7022 5734 6976 z M 6455 7038 L 6483 7016 L 6454 6992 C 6438 6979 6392 6946 6351 6919 C 6292 6880 6274 6872 6259 6880 C 6242 6889 6249 6899 6323 6974 C 6368 7020 6410 7058 6416 7059 C 6422 7059 6440 7050 6455 7038 z M 5436 6911 C 5471 6890 5489 6871 5492 6855 C 5495 6841 5494 6830 5491 6830 C 5488 6830 5449 6850 5405 6874 C 5322 6919 5296 6945 5284 6994 L 5277 7023 L 5331 6983 C 5361 6960 5408 6928 5436 6911 z M 6766 6967 C 6758 6946 6735 6921 6713 6907 C 6675 6883 6574 6830 6567 6830 C 6565 6830 6565 6841 6567 6854 C 6571 6872 6597 6894 6660 6934 C 6708 6965 6754 6997 6761 7006 C 6780 7030 6783 7007 6766 6967 z M 6520 6981 L 6541 6951 L 6425 6894 C 6337 6850 6307 6839 6298 6848 C 6292 6854 6288 6861 6291 6863 C 6293 6865 6322 6885 6355 6907 C 6388 6930 6432 6962 6454 6979 C 6475 6996 6494 7010 6496 7010 C 6497 7010 6508 6997 6520 6981 z M 5637 6880 C 5699 6850 5749 6819 5750 6813 C 5750 6796 5744 6796 5664 6821 C 5585 6845 5500 6886 5500 6899 C 5500 6916 5512 6941 5519 6938 C 5522 6936 5575 6910 5637 6880 z M 6554 6924 C 6557 6915 6560 6904 6560 6899 C 6560 6886 6475 6845 6396 6821 C 6316 6796 6310 6796 6310 6813 C 6311 6822 6511 6932 6541 6939 C 6545 6939 6551 6933 6554 6924 z M 6132 6909 C 6229 6888 6300 6837 6300 6787 C 6300 6757 6237 6704 6178 6684 C 6107 6659 5954 6659 5884 6683 C 5784 6718 5740 6781 5780 6833 C 5837 6905 5992 6938 6132 6909 z M 5509 6805 C 5517 6800 5533 6795 5544 6794 C 5595 6789 5754 6750 5764 6740 C 5791 6713 5598 6740 5558 6770 C 5544 6781 5530 6785 5528 6780 C 5523 6766 5409 6825 5365 6865 L 5325 6900 L 5410 6857 C 5457 6834 5502 6810 5509 6805 z M 6695 6864 C 6650 6824 6537 6766 6532 6780 C 6530 6785 6516 6781 6502 6770 C 6463 6741 6268 6713 6296 6739 C 6303 6747 6456 6784 6520 6794 C 6528 6795 6544 6802 6555 6808 C 6592 6830 6725 6899 6730 6899 C 6733 6899 6717 6883 6695 6864 z M 5585 6837 C 5618 6824 5669 6807 5698 6799 C 5754 6785 5767 6770 5723 6770 C 5678 6770 5538 6812 5518 6832 C 5497 6853 5494 6875 5513 6867 C 5519 6864 5552 6851 5585 6837 z M 6554 6848 C 6551 6835 6547 6824 6546 6823 C 6540 6815 6361 6770 6337 6770 C 6292 6770 6314 6785 6395 6809 C 6434 6821 6483 6839 6505 6849 C 6558 6874 6563 6874 6554 6848 z M 5575 6740 C 5578 6734 5574 6733 5566 6736 C 5548 6743 5545 6750 5559 6750 C 5565 6750 5572 6746 5575 6740 z M 6510 6746 C 6510 6744 6503 6739 6494 6736 C 6486 6733 6482 6734 6485 6740 C 6491 6750 6510 6754 6510 6746 z M 5794 6709 C 5799 6705 5786 6698 5765 6694 C 5727 6687 5625 6704 5615 6720 C 5609 6730 5782 6720 5794 6709 z M 6430 6715 C 6396 6696 6329 6686 6290 6695 C 6244 6705 6262 6714 6343 6721 C 6464 6731 6458 6731 6430 6715 z M 5837 6684 C 5850 6680 5857 6674 5854 6669 C 5848 6658 5785 6657 5739 6667 C 5705 6675 5706 6675 5755 6681 C 5783 6684 5807 6688 5810 6688 C 5813 6689 5825 6687 5837 6684 z M 6315 6679 C 6350 6678 6352 6677 6330 6670 C 6295 6659 6210 6658 6210 6669 C 6210 6682 6232 6690 6255 6685 C 6266 6682 6293 6680 6315 6679 z M 6115 6639 C 6120 6634 6084 6630 6030 6630 C 5911 6630 5824 6640 5842 6651 C 5859 6661 6102 6650 6115 6639 z M 6219 6651 C 6228 6645 6220 6641 6194 6638 C 6152 6633 6130 6637 6130 6651 C 6130 6662 6201 6662 6219 6651 z" stroke-linecap="round" />
</g>
		<g transform="matrix(0.13 0 0 -0.13 -92.51 -436.79)"  >
<path style="stroke: none; stroke-width: 1; stroke-dasharray: none; stroke-linecap: butt; stroke-dashoffset: 0; stroke-linejoin: miter; stroke-miterlimit: 4; fill: rgb(0,78,145); fill-rule: nonzero; opacity: 1;" vector-effect="non-scaling-stroke"  transform=" translate(-5726.61, -8514.75)" d="M 5713 8513 C 5722 8511 5736 8511 5743 8513 C 5749 8516 5742 8518 5725 8518 C 5709 8518 5703 8516 5713 8513 z" stroke-linecap="round" />
</g>
		<g transform="matrix(0.13 0 0 -0.13 -0.79 -434.83)"  >
<path style="stroke: none; stroke-width: 1; stroke-dasharray: none; stroke-linecap: butt; stroke-dashoffset: 0; stroke-linejoin: miter; stroke-miterlimit: 4; fill: rgb(0,78,145); fill-rule: nonzero; opacity: 1;" vector-effect="non-scaling-stroke"  transform=" translate(-6415.09, -8500)" d="M 6395 8500 C 6412 8496 6434 8492 6445 8492 C 6461 8492 6460 8494 6440 8500 C 6426 8504 6404 8508 6390 8508 C 6368 8508 6368 8507 6395 8500 z" stroke-linecap="round" />
</g>
		<g transform="matrix(0.13 0 0 -0.13 -81.36 -306.97)"  >
<path style="stroke: none; stroke-width: 1; stroke-dasharray: none; stroke-linecap: butt; stroke-dashoffset: 0; stroke-linejoin: miter; stroke-miterlimit: 4; fill: rgb(0,78,145); fill-rule: nonzero; opacity: 1;" vector-effect="non-scaling-stroke"  transform=" translate(-5810, -7540)" d="M 5802 7580 C 5801 7566 5805 7537 5809 7515 C 5815 7489 5818 7484 5818 7500 C 5819 7514 5815 7543 5811 7565 C 5805 7591 5802 7596 5802 7580 z" stroke-linecap="round" />
</g>
		<g transform="matrix(0.13 0 0 -0.13 129.83 -397.11)"  >
<path style="stroke: none; stroke-width: 1; stroke-dasharray: none; stroke-linecap: butt; stroke-dashoffset: 0; stroke-linejoin: miter; stroke-miterlimit: 4; fill: rgb(0,78,145); fill-rule: nonzero; opacity: 1;" vector-effect="non-scaling-stroke"  transform=" translate(-7396, -8215)" d="M 7380 8277 C 7372 8260 7351 8239 7334 8231 L 7304 8216 L 7334 8200 C 7351 8192 7372 8171 7381 8154 L 7396 8123 L 7413 8152 C 7422 8168 7443 8188 7459 8197 L 7488 8214 L 7459 8232 C 7443 8242 7422 8263 7412 8278 L 7395 8307 L 7380 8277 z" stroke-linecap="round" />
</g>
		<g transform="matrix(0.13 0 0 -0.13 -73.82 -47.62)"  >
<path style="stroke: none; stroke-width: 1; stroke-dasharray: none; stroke-linecap: butt; stroke-dashoffset: 0; stroke-linejoin: miter; stroke-miterlimit: 4; fill: rgb(0,78,145); fill-rule: nonzero; opacity: 1;" vector-effect="non-scaling-stroke"  transform=" translate(-5896.61, -5574.72)" d="M 6745 6423 C 6707 6415 6615 6380 6570 6356 C 6495 6316 6418 6272 6360 6235 C 6303 6199 6216 6155 6155 6130 C 6144 6126 6122 6117 6106 6111 C 6044 6086 5878 6075 5764 6089 C 5704 6096 5649 6106 5640 6110 C 5632 6114 5600 6125 5570 6135 C 5500 6157 5342 6235 5313 6263 C 5300 6274 5287 6280 5283 6276 C 5276 6269 5294 6250 5381 6175 C 5518 6056 5874 5872 6113 5795 C 6150 5783 6180 5769 6178 5764 C 6170 5739 5883 5768 5740 5808 C 5721 5814 5687 5824 5665 5830 C 5643 5836 5616 5845 5605 5849 C 5594 5854 5542 5875 5490 5896 C 5397 5934 5232 6015 5181 6048 C 5137 6077 5116 6090 5101 6097 C 5067 6113 4945 6203 4826 6300 C 4756 6358 4693 6407 4686 6409 C 4667 6415 4859 6223 4965 6131 C 5092 6020 5091 6021 5180 5956 C 5221 5925 5260 5897 5265 5893 C 5271 5888 5331 5849 5400 5805 C 5654 5644 5773 5521 5945 5241 C 5951 5232 5957 5223 5960 5220 C 5963 5217 5989 5179 6019 5135 C 6085 5038 6244 4873 6324 4819 C 6381 4781 6504 4735 6521 4745 C 6526 4748 6553 4744 6582 4735 C 6610 4727 6647 4720 6664 4720 C 6694 4720 6694 4721 6650 4743 C 6510 4815 6423 4896 6399 4977 C 6382 5034 6381 5185 6397 5290 C 6416 5421 6375 5591 6308 5664 C 6279 5696 6286 5708 6338 5713 C 6404 5720 6480 5740 6480 5751 C 6480 5756 6486 5760 6494 5760 C 6516 5760 6605 5851 6622 5890 C 6630 5909 6645 5950 6654 5980 C 6686 6082 6766 6218 6817 6260 C 6902 6330 6978 6368 7048 6376 C 7127 6385 7128 6392 7055 6411 C 6989 6428 6802 6436 6745 6423 z" stroke-linecap="round" />
</g>
		<g transform="matrix(0.13 0 0 -0.13 -21.4 618.36)"  >
<path style="stroke: none; stroke-width: 1; stroke-dasharray: none; stroke-linecap: butt; stroke-dashoffset: 0; stroke-linejoin: miter; stroke-miterlimit: 4; fill: rgb(0,78,145); fill-rule: nonzero; opacity: 1;" vector-effect="non-scaling-stroke"  transform=" translate(-6420, -590)" d="M 0 590 L 0 140 L 6420 140 L 12840 140 L 12840 590 L 12840 1040 L 6420 1040 L 0 1040 L 0 590 z M 630 629 L 630 429 L 598 432 L 565 435 L 562 620 C 561 721 562 810 564 817 C 567 824 583 830 600 830 L 630 830 L 630 629 z M 11140 715 C 11140 677 11136 660 11127 660 C 11118 660 11114 677 11114 715 C 11114 753 11118 770 11127 770 C 11136 770 11140 753 11140 715 z M 11608 712 C 11610 674 11608 660 11598 660 C 11588 660 11584 676 11584 715 C 11584 785 11604 783 11608 712 z M 11708 756 C 11714 749 11713 680 11707 673 C 11704 670 11686 667 11668 667 C 11637 665 11635 667 11632 704 C 11627 762 11635 774 11672 766 C 11689 763 11705 758 11708 756 z M 11858 758 C 11874 742 11873 713 11858 707 C 11848 704 11848 698 11858 681 C 11869 661 11868 660 11840 660 C 11820 660 11810 665 11810 675 C 11810 683 11815 690 11820 690 C 11826 690 11830 697 11830 705 C 11830 713 11835 720 11840 720 C 11846 720 11850 725 11850 730 C 11850 736 11843 740 11835 740 C 11819 740 11815 752 11827 763 C 11836 773 11844 772 11858 758 z M 12123 748 C 12132 735 12127 725 12101 701 C 12083 684 12066 670 12064 670 C 12057 670 12060 756 12067 764 C 12079 775 12112 766 12123 748 z M 12190 760 C 12199 754 12205 735 12206 710 C 12206 667 12197 659 12181 688 C 12172 704 12171 704 12165 688 C 12161 678 12155 670 12151 670 C 12144 670 12144 696 12149 758 C 12150 772 12169 774 12190 760 z M 12321 760 C 12343 747 12347 710 12325 710 C 12317 710 12305 701 12298 690 C 12278 659 12270 666 12270 713 C 12270 771 12281 781 12321 760 z M 521 738 C 537 720 540 698 542 598 C 543 533 544 470 544 458 C 545 429 506 421 480 445 C 464 459 462 459 457 445 C 448 423 400 427 373 452 C 356 468 350 485 350 516 C 350 559 361 573 455 645 C 474 659 479 670 474 683 C 465 707 438 701 425 672 C 418 657 407 650 387 650 C 353 650 343 672 361 708 C 385 754 393 759 449 760 C 492 760 506 756 521 738 z M 819 734 C 838 710 840 694 840 569 C 840 433 840 430 818 430 C 806 430 788 437 778 446 C 762 462 760 462 754 446 C 745 423 689 425 667 450 C 639 483 644 550 678 588 C 694 606 711 620 717 620 C 722 620 737 631 750 645 C 769 666 772 674 764 688 C 749 711 737 708 722 676 C 713 658 701 650 684 650 C 653 650 643 674 661 708 C 685 756 691 760 745 760 C 791 760 802 756 819 734 z M 926 749 C 930 741 935 741 943 749 C 961 767 1018 762 1030 743 C 1040 726 1040 726 1050 743 C 1065 767 1126 766 1140 741 C 1145 730 1150 657 1150 575 L 1150 429 L 1118 432 L 1085 435 L 1082 568 C 1080 676 1077 700 1065 700 C 1053 700 1050 682 1049 613 C 1048 426 1050 435 1010 435 L 975 435 L 970 565 C 966 672 962 695 950 695 C 938 695 935 672 932 563 L 929 430 L 895 430 L 860 430 L 860 595 L 860 760 L 889 760 C 906 760 922 755 926 749 z M 1240 631 C 1240 532 1243 501 1253 497 C 1283 486 1289 507 1292 630 L 1295 755 L 1328 758 L 1360 761 L 1360 572 C 1360 342 1360 344 1258 338 L 1190 334 L 1190 362 C 1190 388 1193 390 1228 390 C 1272 390 1290 404 1290 439 C 1290 462 1289 462 1272 447 C 1245 422 1205 426 1186 455 C 1173 474 1170 507 1170 620 L 1170 760 L 1205 760 L 1240 760 L 1240 631 z M 11953 718 C 11972 672 11969 660 11944 680 C 11932 691 11924 691 11910 682 C 11886 667 11879 677 11893 708 C 11920 772 11932 774 11953 718 z M 12019 713 C 12017 679 12016 674 12013 695 C 12010 712 12004 729 11999 735 C 11985 749 11988 760 12005 760 C 12016 760 12020 749 12019 713 z M 12250 701 C 12250 641 12238 618 12217 639 C 12209 647 12209 650 12218 650 C 12226 650 12230 669 12230 705 C 12230 735 12235 760 12240 760 C 12246 760 12250 734 12250 701 z M 11350 705 C 11350 680 11345 670 11329 665 C 11302 656 11285 673 11295 697 C 11303 713 11304 713 11307 693 C 11310 680 11316 670 11321 670 C 11334 670 11332 704 11319 717 C 11304 732 11316 751 11335 743 C 11344 740 11350 725 11350 705 z M 11520 723 C 11520 714 11514 710 11506 713 C 11498 716 11489 714 11487 707 C 11481 690 11490 669 11501 676 C 11506 679 11510 677 11510 671 C 11510 650 11491 651 11476 672 C 11456 700 11456 714 11475 734 C 11493 752 11520 745 11520 723 z M 11278 703 C 11280 684 11277 670 11271 670 C 11265 670 11260 681 11260 695 C 11260 709 11256 720 11250 720 C 11245 720 11237 721 11233 722 C 11228 723 11222 711 11219 694 L 11212 665 L 11211 693 C 11210 728 11180 731 11180 695 C 11180 681 11176 670 11170 670 C 11165 670 11160 686 11160 705 L 11160 741 L 11218 738 C 11274 735 11275 735 11278 703 z M 11432 698 C 11438 646 11426 620 11399 620 C 11388 620 11382 625 11385 630 C 11388 636 11397 640 11403 640 C 11416 640 11420 713 11408 718 C 11381 726 11366 697 11393 687 C 11399 685 11402 679 11398 675 C 11389 665 11360 688 11360 704 C 11360 723 11382 740 11406 740 C 11424 740 11429 733 11432 698 z M 11750 736 C 11750 733 11746 728 11740 725 C 11735 722 11730 724 11730 729 C 11730 735 11735 740 11740 740 C 11746 740 11750 738 11750 736 z M 11750 680 C 11750 675 11746 670 11740 670 C 11735 670 11730 675 11730 680 C 11730 686 11735 690 11740 690 C 11746 690 11750 686 11750 680 z M 11600 484 C 11600 443 11596 430 11585 430 C 11574 430 11570 443 11570 483 C 11570 513 11573 540 11576 543 C 11591 558 11600 535 11600 484 z M 11542 496 C 11546 490 11550 473 11550 458 C 11550 432 11547 430 11510 430 C 11474 430 11470 433 11470 455 C 11470 469 11475 480 11481 480 C 11487 480 11490 486 11487 494 C 11484 502 11484 510 11486 513 C 11494 520 11534 508 11542 496 z M 11854 487 C 11864 450 11861 430 11845 430 C 11834 430 11830 441 11830 466 C 11830 497 11828 501 11815 490 C 11807 483 11800 467 11800 454 C 11800 441 11796 430 11790 430 C 11785 430 11780 444 11780 460 C 11780 480 11775 490 11765 490 C 11756 490 11750 481 11750 466 C 11750 452 11746 438 11740 435 C 11734 432 11730 440 11730 454 C 11730 467 11727 485 11724 493 C 11717 511 11744 517 11807 512 C 11839 509 11849 503 11854 487 z M 12066 493 C 12033 476 12033 464 12068 446 L 12095 431 L 12062 430 C 12026 430 12014 446 12024 484 C 12030 509 12053 520 12079 512 C 12088 508 12084 502 12066 493 z M 12340 465 C 12340 441 12335 430 12325 430 C 12316 430 12310 439 12310 453 C 12310 465 12305 482 12300 490 C 12292 502 12290 501 12290 483 C 12290 451 12280 430 12264 430 C 12255 430 12250 442 12250 466 C 12250 487 12246 499 12240 495 C 12235 492 12230 476 12230 459 C 12230 440 12225 430 12215 430 C 12204 430 12200 441 12200 469 L 12200 509 L 12253 512 C 12324 516 12340 507 12340 465 z M 11020 493 C 11020 478 11021 478 11038 493 C 11061 514 11070 514 11086 493 C 11099 476 11099 476 11100 493 C 11100 517 11160 518 11160 493 C 11160 478 11161 478 11178 493 C 11201 514 11210 514 11226 493 C 11239 476 11239 476 11240 493 C 11240 505 11248 510 11270 510 C 11287 510 11300 506 11300 500 C 11300 495 11307 490 11315 490 C 11323 490 11330 495 11330 500 C 11330 516 11352 512 11366 493 C 11379 476 11379 476 11380 493 C 11380 502 11386 510 11394 510 C 11403 510 11406 501 11402 483 C 11393 429 11358 412 11345 453 L 11337 475 L 11333 453 C 11326 418 11301 426 11282 468 C 11267 503 11266 504 11262 480 C 11255 433 11210 408 11210 450 C 11210 461 11206 470 11200 470 C 11195 470 11190 461 11190 449 C 11190 416 11156 430 11145 468 C 11140 485 11133 500 11130 500 C 11127 500 11120 485 11115 468 C 11104 430 11070 416 11070 449 C 11070 461 11066 470 11060 470 C 11055 470 11050 461 11050 450 C 11050 429 11026 422 11015 440 C 11011 446 11005 464 11000 480 C 10993 503 10995 510 11006 510 C 11014 510 11020 503 11020 493 z M 11690 470 C 11690 432 11688 430 11660 430 C 11626 430 11611 452 11630 475 C 11636 483 11639 494 11635 500 C 11631 506 11641 510 11659 510 C 11688 510 11690 508 11690 470 z M 11900 495 C 11900 476 11909 476 11932 497 C 11957 520 11961 511 11947 462 C 11934 418 11907 380 11890 380 C 11876 380 11878 408 11893 413 C 11902 416 11901 428 11888 463 C 11874 503 11873 510 11885 510 C 11893 510 11900 503 11900 495 z M 12175 470 C 12175 438 12172 435 12144 432 C 12102 428 12083 451 12099 486 C 12108 507 12116 511 12143 508 C 12172 505 12175 502 12175 470 z M 11450 440 C 11450 435 11443 430 11435 430 C 11427 430 11420 435 11420 440 C 11420 446 11427 450 11435 450 C 11443 450 11450 446 11450 440 z M 11995 440 C 11998 435 11994 430 11985 430 C 11976 430 11972 435 11975 440 C 11978 446 11983 450 11985 450 C 11987 450 11992 446 11995 440 z" stroke-linecap="round" />
</g>
		<g transform="matrix(0.13 0 0 -0.13 700 603.15)"  >
<path style="stroke: none; stroke-width: 1; stroke-dasharray: none; stroke-linecap: butt; stroke-dashoffset: 0; stroke-linejoin: miter; stroke-miterlimit: 4; fill: rgb(0,78,145); fill-rule: nonzero; opacity: 1;" vector-effect="non-scaling-stroke"  transform=" translate(-11670.44, -714.45)" d="M 11654 725 C 11646 694 11664 670 11681 687 C 11695 701 11689 742 11673 747 C 11666 750 11658 740 11654 725 z" stroke-linecap="round" />
</g>
		<g transform="matrix(0.13 0 0 -0.13 756.62 601.16)"  >
<path style="stroke: none; stroke-width: 1; stroke-dasharray: none; stroke-linecap: butt; stroke-dashoffset: 0; stroke-linejoin: miter; stroke-miterlimit: 4; fill: rgb(0,78,145); fill-rule: nonzero; opacity: 1;" vector-effect="non-scaling-stroke"  transform=" translate(-12095, -730)" d="M 12080 730 C 12080 725 12087 720 12095 720 C 12103 720 12110 725 12110 730 C 12110 736 12103 740 12095 740 C 12087 740 12080 736 12080 730 z" stroke-linecap="round" />
</g>
		<g transform="matrix(0.13 0 0 -0.13 767.15 600.72)"  >
<path style="stroke: none; stroke-width: 1; stroke-dasharray: none; stroke-linecap: butt; stroke-dashoffset: 0; stroke-linejoin: miter; stroke-miterlimit: 4; fill: rgb(0,78,145); fill-rule: nonzero; opacity: 1;" vector-effect="non-scaling-stroke"  transform=" translate(-12173.92, -733.19)" d="M 12165 739 C 12155 724 12168 714 12181 727 C 12188 734 12188 740 12182 744 C 12176 747 12168 745 12165 739 z" stroke-linecap="round" />
</g>
		<g transform="matrix(0.13 0 0 -0.13 784.36 601.16)"  >
<path style="stroke: none; stroke-width: 1; stroke-dasharray: none; stroke-linecap: butt; stroke-dashoffset: 0; stroke-linejoin: miter; stroke-miterlimit: 4; fill: rgb(0,78,145); fill-rule: nonzero; opacity: 1;" vector-effect="non-scaling-stroke"  transform=" translate(-12303, -730)" d="M 12290 730 C 12290 725 12294 720 12299 720 C 12305 720 12312 725 12315 730 C 12318 736 12314 740 12306 740 C 12297 740 12290 736 12290 730 z" stroke-linecap="round" />
</g>
		<g transform="matrix(0.13 0 0 -0.13 -796.05 626.88)"  >
<path style="stroke: none; stroke-width: 1; stroke-dasharray: none; stroke-linecap: butt; stroke-dashoffset: 0; stroke-linejoin: miter; stroke-miterlimit: 4; fill: rgb(0,78,145); fill-rule: nonzero; opacity: 1;" vector-effect="non-scaling-stroke"  transform=" translate(-450.34, -536.27)" d="M 440 560 C 416 536 414 504 436 496 C 461 486 480 508 480 546 C 480 585 469 589 440 560 z" stroke-linecap="round" />
</g>
		<g transform="matrix(0.13 0 0 -0.13 -756.73 626.74)"  >
<path style="stroke: none; stroke-width: 1; stroke-dasharray: none; stroke-linecap: butt; stroke-dashoffset: 0; stroke-linejoin: miter; stroke-miterlimit: 4; fill: rgb(0,78,145); fill-rule: nonzero; opacity: 1;" vector-effect="non-scaling-stroke"  transform=" translate(-745.12, -537.33)" d="M 737 562 C 706 528 721 484 758 497 C 771 502 775 580 762 580 C 757 580 746 572 737 562 z" stroke-linecap="round" />
</g>
		<g transform="matrix(0.13 0 0 -0.13 678.63 637.16)"  >
<path style="stroke: none; stroke-width: 1; stroke-dasharray: none; stroke-linecap: butt; stroke-dashoffset: 0; stroke-linejoin: miter; stroke-miterlimit: 4; fill: rgb(0,78,145); fill-rule: nonzero; opacity: 1;" vector-effect="non-scaling-stroke"  transform=" translate(-11510, -460)" d="M 11500 460 C 11500 455 11505 450 11510 450 C 11516 450 11520 455 11520 460 C 11520 466 11516 470 11510 470 C 11505 470 11500 466 11500 460 z" stroke-linecap="round" />
</g>
		<g transform="matrix(0.13 0 0 -0.13 698.07 637.82)"  >
<path style="stroke: none; stroke-width: 1; stroke-dasharray: none; stroke-linecap: butt; stroke-dashoffset: 0; stroke-linejoin: miter; stroke-miterlimit: 4; fill: rgb(0,78,145); fill-rule: nonzero; opacity: 1;" vector-effect="non-scaling-stroke"  transform=" translate(-11655.86, -455.19)" d="M 11648 453 C 11655 450 11664 451 11667 454 C 11671 457 11665 460 11654 459 C 11643 459 11640 456 11648 453 z" stroke-linecap="round" />
</g>
		<g transform="matrix(0.13 0 0 -0.13 763.08 635.25)"  >
<path style="stroke: none; stroke-width: 1; stroke-dasharray: none; stroke-linecap: butt; stroke-dashoffset: 0; stroke-linejoin: miter; stroke-miterlimit: 4; fill: rgb(0,78,145); fill-rule: nonzero; opacity: 1;" vector-effect="non-scaling-stroke"  transform=" translate(-12143.49, -474)" d="M 12130 477 C 12130 450 12143 441 12156 461 C 12159 467 12155 479 12146 488 C 12131 503 12130 502 12130 477 z" stroke-linecap="round" />
</g>
</g>
</g>
<g transform="matrix(0 0 0 0 0 0)"  >
<g style=""   >
</g>
</g>
<g transform="matrix(NaN NaN NaN NaN 0 0)"  >
<g style=""   >
</g>
</g>
<g transform="matrix(NaN NaN NaN NaN 0 0)"  >
<g style=""   >
</g>
</g>
<g transform="matrix(0.04 0 0 0.04 726.79 314.7)"  >
<g style="opacity: 1;" vector-effect="non-scaling-stroke"   >
		<g transform="matrix(0.13 0 0 -0.13 0 0)"  >
<path style="stroke: none; stroke-width: 1; stroke-dasharray: none; stroke-linecap: butt; stroke-dashoffset: 0; stroke-linejoin: miter; stroke-miterlimit: 4; fill: rgb(216,91,15); fill-rule: nonzero; opacity: 1;" vector-effect="non-scaling-stroke"  transform=" translate(-2560, -2561.09)" d="M 2390 5011 L 2315 5005 L 2242 4787 C 2173 4585 2166 4569 2142 4564 C 2127 4561 2065 4545 2004 4528 L 1892 4497 L 1725 4646 C 1634 4728 1554 4797 1549 4798 C 1536 4803 1341 4698 1224 4622 L 1123 4557 L 1169 4333 L 1215 4110 L 1115 4010 C 1060 3955 1008 3910 999 3910 C 991 3910 889 3930 774 3954 C 659 3978 564 3998 564 3997 C 537 3964 417 3766 374 3684 L 317 3572 L 470 3400 L 624 3228 L 610 3181 C 603 3156 587 3095 574 3045 C 561 2996 547 2954 543 2952 C 538 2950 441 2916 325 2877 L 115 2805 L 107 2682 C 102 2615 102 2505 107 2437 L 115 2315 L 325 2243 C 441 2204 538 2170 543 2168 C 547 2166 561 2124 574 2075 C 587 2025 603 1964 610 1939 L 624 1892 L 500 1754 C 432 1677 363 1601 347 1583 L 317 1551 L 364 1457 C 421 1344 541 1149 563 1136 C 573 1129 646 1140 795 1171 L 1012 1216 L 1111 1116 C 1172 1054 1210 1008 1210 995 C 1209 984 1190 884 1166 772 L 1123 569 L 1154 545 C 1211 502 1349 420 1450 369 L 1551 319 L 1721 471 C 1857 592 1895 621 1913 617 C 1925 614 1987 598 2050 582 L 2165 552 L 2240 334 L 2315 115 L 2437 107 C 2505 103 2615 103 2682 107 L 2805 115 L 2877 325 C 2916 441 2950 538 2952 543 C 2955 549 3124 598 3207 617 C 3225 621 3264 591 3400 470 L 3571 318 L 3670 369 C 3773 421 3912 504 3966 545 L 3997 569 L 3954 772 C 3930 884 3911 984 3910 995 C 3910 1008 3948 1054 4009 1116 L 4108 1216 L 4325 1171 C 4474 1140 4547 1129 4557 1136 C 4578 1149 4695 1339 4754 1454 L 4803 1551 L 4773 1583 C 4757 1601 4688 1677 4621 1753 C 4523 1862 4499 1895 4503 1913 C 4521 1996 4571 2165 4577 2168 C 4582 2170 4680 2204 4795 2243 L 5005 2315 L 5013 2437 C 5018 2505 5018 2615 5013 2682 L 5005 2805 L 4788 2878 L 4570 2952 L 4560 2993 C 4555 3016 4538 3079 4523 3132 L 4497 3228 L 4650 3400 L 4803 3572 L 4749 3678 C 4709 3755 4580 3970 4556 3997 C 4556 3998 4461 3978 4346 3954 C 4231 3930 4129 3910 4121 3910 C 4112 3910 4060 3955 4005 4010 L 3905 4110 L 3949 4322 C 3973 4439 3994 4539 3996 4545 C 4004 4565 3597 4808 3571 4798 C 3566 4797 3487 4728 3395 4646 L 3229 4498 L 3117 4528 C 3055 4545 2993 4561 2978 4564 C 2953 4570 2947 4584 2879 4789 L 2806 5007 L 2696 5014 C 2577 5020 2509 5020 2390 5011 z M 2725 4600 C 2782 4427 2798 4388 2815 4385 C 2966 4356 3102 4322 3178 4295 L 3272 4261 L 3438 4410 L 3604 4558 L 3650 4532 C 3675 4518 3711 4496 3731 4484 L 3768 4461 L 3723 4244 L 3678 4026 L 3722 3991 C 3778 3946 3946 3778 3991 3721 L 4026 3678 L 4231 3720 C 4343 3744 4441 3763 4449 3764 C 4457 3765 4485 3729 4511 3685 L 4559 3605 L 4536 3580 C 4524 3566 4457 3492 4387 3414 L 4261 3273 L 4300 3158 C 4322 3094 4351 2987 4364 2920 C 4378 2853 4390 2797 4392 2795 C 4394 2794 4488 2762 4603 2724 L 4810 2655 L 4810 2560 L 4810 2465 L 4603 2396 C 4488 2358 4394 2326 4392 2325 C 4390 2323 4378 2267 4364 2200 C 4351 2133 4322 2026 4301 1963 L 4262 1849 L 4410 1682 L 4558 1516 L 4532 1470 C 4518 1445 4496 1409 4484 1389 L 4461 1352 L 4244 1397 L 4027 1442 L 3987 1394 C 3935 1331 3789 1185 3726 1133 L 3678 1093 L 3723 879 C 3748 758 3764 660 3759 655 C 3755 649 3717 626 3676 605 L 3601 565 L 3573 591 C 3558 605 3484 671 3409 738 L 3273 859 L 3158 820 C 3094 798 2987 769 2920 756 C 2853 742 2797 730 2795 728 C 2794 726 2762 632 2724 517 L 2655 310 L 2560 310 L 2464 310 L 2395 521 C 2356 637 2321 733 2315 735 C 2310 736 2254 747 2191 759 C 2128 771 2025 798 1962 820 L 1847 859 L 1706 733 C 1628 663 1555 597 1542 586 L 1519 565 L 1444 605 C 1403 626 1365 649 1361 655 C 1356 660 1372 758 1397 879 L 1442 1093 L 1394 1133 C 1331 1185 1185 1331 1133 1394 L 1093 1442 L 877 1397 C 720 1365 658 1356 651 1364 C 647 1370 625 1407 603 1446 L 563 1517 L 710 1683 L 858 1849 L 819 1963 C 798 2026 769 2133 756 2200 C 742 2267 730 2323 728 2325 C 726 2326 632 2358 518 2396 L 310 2465 L 310 2560 L 310 2656 L 520 2725 C 693 2782 732 2798 735 2815 C 765 2968 798 3101 826 3178 L 860 3272 L 733 3414 C 664 3491 596 3566 584 3580 L 561 3605 L 609 3685 C 650 3753 660 3765 681 3762 C 694 3761 792 3741 899 3719 L 1094 3678 L 1129 3722 C 1174 3778 1342 3946 1399 3991 L 1442 4027 L 1401 4226 C 1378 4335 1357 4433 1354 4442 C 1349 4459 1364 4471 1470 4532 L 1516 4558 L 1683 4410 L 1849 4261 L 1943 4294 C 2019 4322 2152 4356 2305 4385 C 2322 4388 2338 4427 2395 4600 L 2464 4810 L 2560 4810 L 2656 4810 L 2725 4600 z" stroke-linecap="round" />
</g>
		<g transform="matrix(0.13 0 0 -0.13 0 0.13)"  >
<path style="stroke: none; stroke-width: 1; stroke-dasharray: none; stroke-linecap: butt; stroke-dashoffset: 0; stroke-linejoin: miter; stroke-miterlimit: 4; fill: rgb(216,91,15); fill-rule: nonzero; opacity: 1;" vector-effect="non-scaling-stroke"  transform=" translate(-2560, -2560.14)" d="M 2330 3976 C 1738 3871 1284 3436 1155 2850 C 1145 2807 1136 2705 1133 2610 C 1124 2343 1162 2165 1275 1933 C 1473 1529 1830 1252 2280 1154 C 2401 1127 2719 1127 2840 1154 C 3290 1252 3647 1529 3845 1933 C 3958 2164 3996 2344 3987 2608 C 3981 2786 3967 2868 3919 3014 C 3849 3224 3737 3403 3570 3570 C 3366 3775 3134 3902 2850 3965 C 2749 3988 2433 3994 2330 3976 z M 2800 3765 C 3242 3672 3602 3348 3734 2924 C 3764 2826 3790 2659 3790 2560 C 3790 2098 3509 1653 3091 1454 C 2915 1370 2759 1335 2555 1336 C 2358 1336 2201 1371 2027 1455 C 1611 1653 1330 2098 1330 2560 C 1330 2738 1382 2952 1465 3114 C 1649 3476 1997 3723 2402 3780 C 2490 3792 2711 3784 2800 3765 z" stroke-linecap="round" />
</g>
</g>
</g>
</svg>