<svg xmlns="http://www.w3.org/2000/svg" xmlns:xlink="http://www.w3.org/1999/xlink" version="1.1" width="90" height="90" viewBox="0 0 256 256" xml:space="preserve">

<defs>
</defs>
<g style="stroke: none; stroke-width: 0; stroke-dasharray: none; stroke-linecap: butt; stroke-linejoin: miter; stroke-miterlimit: 10; fill: none; fill-rule: nonzero; opacity: 1;" transform="translate(1.4065934065934016 1.4065934065934016) scale(2.81 2.81)" >
	<path d="M 84.644 64.941 H 5.356 C 2.95 64.941 1 62.99 1 60.585 V 9.934 c 0 -2.406 1.95 -4.356 4.356 -4.356 h 79.287 C 87.05 5.578 89 7.529 89 9.934 v 50.65 C 89 62.99 87.05 64.941 84.644 64.941 z" style="stroke: none; stroke-width: 1; stroke-dasharray: none; stroke-linecap: butt; stroke-linejoin: miter; stroke-miterlimit: 10; fill: rgb(72,124,165); fill-rule: nonzero; opacity: 1;" transform=" matrix(1 0 0 1 0 0) " stroke-linecap="round" />
	<rect x="29.34" y="64.94" rx="0" ry="0" width="31.32" height="10.83" style="stroke: none; stroke-width: 1; stroke-dasharray: none; stroke-linecap: butt; stroke-linejoin: miter; stroke-miterlimit: 10; fill: rgb(52,91,121); fill-rule: nonzero; opacity: 1;" transform=" matrix(1 0 0 1 0 0) "/>
	<path d="M 71.549 84.422 H 18.451 v 0 c 0 -4.778 3.873 -8.651 8.651 -8.651 h 35.797 C 67.676 75.771 71.549 79.644 71.549 84.422 L 71.549 84.422 z" style="stroke: none; stroke-width: 1; stroke-dasharray: none; stroke-linecap: butt; stroke-linejoin: miter; stroke-miterlimit: 10; fill: rgb(72,124,165); fill-rule: nonzero; opacity: 1;" transform=" matrix(1 0 0 1 0 0) " stroke-linecap="round" />
	<path d="M 84.644 65.94 H 5.356 C 2.403 65.94 0 63.538 0 60.585 V 9.935 c 0 -2.954 2.403 -5.356 5.356 -5.356 h 79.287 C 87.597 4.578 90 6.981 90 9.935 v 50.65 C 90 63.538 87.597 65.94 84.644 65.94 z M 5.356 6.578 C 3.506 6.578 2 8.084 2 9.935 v 50.65 c 0 1.851 1.506 3.355 3.356 3.355 h 79.287 c 1.851 0 3.356 -1.505 3.356 -3.355 V 9.935 c 0 -1.851 -1.506 -3.356 -3.356 -3.356 H 5.356 z" style="stroke: none; stroke-width: 1; stroke-dasharray: none; stroke-linecap: butt; stroke-linejoin: miter; stroke-miterlimit: 10; fill: rgb(0,0,0); fill-rule: nonzero; opacity: 1;" transform=" matrix(1 0 0 1 0 0) " stroke-linecap="round" />
	<path d="M 60.661 76.771 H 29.339 c -0.552 0 -1 -0.447 -1 -1 V 64.94 c 0 -0.553 0.448 -1 1 -1 h 31.322 c 0.553 0 1 0.447 1 1 v 10.831 C 61.661 76.324 61.214 76.771 60.661 76.771 z M 30.339 74.771 h 29.322 V 65.94 H 30.339 V 74.771 z" style="stroke: none; stroke-width: 1; stroke-dasharray: none; stroke-linecap: butt; stroke-linejoin: miter; stroke-miterlimit: 10; fill: rgb(0,0,0); fill-rule: nonzero; opacity: 1;" transform=" matrix(1 0 0 1 0 0) " stroke-linecap="round" />
	<path d="M 71.549 85.422 H 18.451 c -0.552 0 -1 -0.447 -1 -1 c 0 -5.321 4.33 -9.65 9.651 -9.65 h 35.797 c 5.321 0 9.65 4.329 9.65 9.65 C 72.549 84.975 72.102 85.422 71.549 85.422 z M 19.516 83.422 h 50.968 c -0.491 -3.748 -3.705 -6.65 -7.585 -6.65 H 27.102 C 23.222 76.771 20.007 79.674 19.516 83.422 z" style="stroke: none; stroke-width: 1; stroke-dasharray: none; stroke-linecap: butt; stroke-linejoin: miter; stroke-miterlimit: 10; fill: rgb(0,0,0); fill-rule: nonzero; opacity: 1;" transform=" matrix(1 0 0 1 0 0) " stroke-linecap="round" />
	<rect x="7" y="11.58" rx="0" ry="0" width="76" height="42.36" style="stroke: none; stroke-width: 1; stroke-dasharray: none; stroke-linecap: butt; stroke-linejoin: miter; stroke-miterlimit: 10; fill: rgb(124,174,243); fill-rule: nonzero; opacity: 1;" transform=" matrix(1 0 0 1 0 0) "/>
	<path d="M 83 54.94 H 7 c -0.552 0 -1 -0.447 -1 -1 V 11.578 c 0 -0.552 0.448 -1 1 -1 h 76 c 0.553 0 1 0.448 1 1 V 53.94 C 84 54.493 83.553 54.94 83 54.94 z M 8 52.94 h 74 V 12.578 H 8 V 52.94 z" style="stroke: none; stroke-width: 1; stroke-dasharray: none; stroke-linecap: butt; stroke-linejoin: miter; stroke-miterlimit: 10; fill: rgb(0,0,0); fill-rule: nonzero; opacity: 1;" transform=" matrix(1 0 0 1 0 0) " stroke-linecap="round" />
	<circle cx="58.418" cy="30.468000000000004" r="13.458" style="stroke: none; stroke-width: 1; stroke-dasharray: none; stroke-linecap: butt; stroke-linejoin: miter; stroke-miterlimit: 10; fill: rgb(249,249,249); fill-rule: nonzero; opacity: 1;" transform="  matrix(1 0 0 1 0 0) "/>
	<path d="M 83.443 55.493 L 83.443 55.493 c -1.066 1.066 -2.795 1.066 -3.862 0 l -9.149 -9.149 c -1.066 -1.066 -1.066 -2.795 0 -3.862 v 0 c 1.066 -1.066 2.795 -1.066 3.862 0 l 9.149 9.149 C 84.509 52.697 84.509 54.426 83.443 55.493 z" style="stroke: none; stroke-width: 1; stroke-dasharray: none; stroke-linecap: butt; stroke-linejoin: miter; stroke-miterlimit: 10; fill: rgb(247,201,97); fill-rule: nonzero; opacity: 1;" transform=" matrix(1 0 0 1 0 0) " stroke-linecap="round" />
	<path d="M 58.413 44.915 c -3.702 0 -7.404 -1.409 -10.223 -4.228 c -5.637 -5.637 -5.637 -14.81 0 -20.446 c 5.638 -5.638 14.811 -5.637 20.446 0 l 0 0 l 0 0 c 2.73 2.73 4.235 6.361 4.235 10.223 s -1.505 7.492 -4.235 10.223 C 65.818 43.505 62.116 44.915 58.413 44.915 z M 58.414 18.012 c -3.19 0 -6.381 1.214 -8.81 3.643 c -4.857 4.857 -4.857 12.761 0 17.618 c 4.858 4.857 12.762 4.855 17.618 0 c 2.353 -2.353 3.649 -5.481 3.649 -8.809 s -1.297 -6.456 -3.649 -8.809 l 0 0 C 64.794 19.226 61.604 18.012 58.414 18.012 z" style="stroke: none; stroke-width: 1; stroke-dasharray: none; stroke-linecap: butt; stroke-linejoin: miter; stroke-miterlimit: 10; fill: rgb(0,0,0); fill-rule: nonzero; opacity: 1;" transform=" matrix(1 0 0 1 0 0) " stroke-linecap="round" />
	<path d="M 70.432 43.481 c -0.256 0 -0.512 -0.098 -0.707 -0.293 l -2.502 -2.501 c -0.391 -0.39 -0.391 -1.023 0 -1.414 s 1.023 -0.391 1.414 0 l 2.502 2.501 c 0.391 0.39 0.391 1.023 0 1.414 C 70.943 43.384 70.688 43.481 70.432 43.481 z" style="stroke: none; stroke-width: 1; stroke-dasharray: none; stroke-linecap: butt; stroke-linejoin: miter; stroke-miterlimit: 10; fill: rgb(0,0,0); fill-rule: nonzero; opacity: 1;" transform=" matrix(1 0 0 1 0 0) " stroke-linecap="round" />
	<path d="M 81.512 57.291 c -0.955 0 -1.91 -0.363 -2.638 -1.091 l -9.149 -9.149 c -1.455 -1.455 -1.455 -3.821 0 -5.276 c 1.408 -1.41 3.866 -1.41 5.276 0 l 9.148 9.149 c 1.455 1.455 1.455 3.821 0 5.276 C 83.422 56.928 82.467 57.291 81.512 57.291 z M 72.362 42.682 c -0.462 0 -0.896 0.18 -1.224 0.507 c -0.675 0.675 -0.675 1.773 0 2.448 l 9.149 9.149 c 0.676 0.674 1.771 0.674 2.447 0 c 0.675 -0.675 0.675 -1.773 0 -2.448 l -9.148 -9.149 C 73.26 42.862 72.825 42.682 72.362 42.682 z" style="stroke: none; stroke-width: 1; stroke-dasharray: none; stroke-linecap: butt; stroke-linejoin: miter; stroke-miterlimit: 10; fill: rgb(0,0,0); fill-rule: nonzero; opacity: 1;" transform=" matrix(1 0 0 1 0 0) " stroke-linecap="round" />
	<path d="M 29.339 44.921 c -0.016 0 -0.031 0 -0.047 -0.001 c -0.399 -0.019 -0.749 -0.274 -0.889 -0.648 L 22.66 28.925 l -3.311 6.773 c -0.168 0.343 -0.517 0.561 -0.898 0.561 h -5.008 c -0.552 0 -1 -0.448 -1 -1 s 0.448 -1 1 -1 h 4.383 l 4.058 -8.301 c 0.176 -0.359 0.551 -0.576 0.947 -0.56 c 0.399 0.02 0.748 0.274 0.888 0.648 l 5.74 15.341 l 5.723 -11.772 c 0.166 -0.342 0.511 -0.56 0.891 -0.563 c 0.392 0.014 0.729 0.209 0.9 0.548 l 2.362 4.659 h 17.862 c 0.553 0 1 0.448 1 1 s -0.447 1 -1 1 H 38.721 c -0.377 0 -0.722 -0.212 -0.892 -0.548 L 36.1 32.301 l -5.861 12.058 C 30.07 44.704 29.72 44.921 29.339 44.921 z" style="stroke: none; stroke-width: 1; stroke-dasharray: none; stroke-linecap: butt; stroke-linejoin: miter; stroke-miterlimit: 10; fill: rgb(0,0,0); fill-rule: nonzero; opacity: 1;" transform=" matrix(1 0 0 1 0 0) " stroke-linecap="round" />
</g>
</svg>